<svg xmlns="http://www.w3.org/2000/svg" xmlns:xlink="http://www.w3.org/1999/xlink" width="2645" zoomAndPan="magnify" viewBox="0 0 1983.75 1700.999932" height="2268" preserveAspectRatio="xMidYMid meet" version="1.0"><defs><clipPath id="9561d478e7"><path d="M 258 137 L 1757.835938 137 L 1757.835938 1608.785156 L 258 1608.785156 Z M 258 137 " clip-rule="nonzero"/></clipPath><clipPath id="1a773f04f4"><path d="M 197 109.292969 L 1818 109.292969 L 1818 1700.394531 L 197 1700.394531 Z M 197 109.292969 " clip-rule="nonzero"/></clipPath><clipPath id="6f59a4ca5a"><path d="M 302 195.128906 L 1713.988281 195.128906 L 1713.988281 1580.78125 L 302 1580.78125 Z M 302 195.128906 " clip-rule="nonzero"/></clipPath><clipPath id="5e3ee11017"><path d="M 357 249 L 1651 249 L 1651 1519.925781 L 357 1519.925781 Z M 357 249 " clip-rule="nonzero"/></clipPath><clipPath id="2e7999d510"><path d="M 406 297.472656 L 1600.882812 297.472656 L 1600.882812 1470 L 406 1470 Z M 406 297.472656 " clip-rule="nonzero"/></clipPath><clipPath id="127f6a4272"><path d="M 444 335 L 1561 335 L 1561 1430.984375 L 444 1430.984375 Z M 444 335 " clip-rule="nonzero"/></clipPath><clipPath id="05d270062d"><path d="M 494 365.679688 L 1513 365.679688 L 1513 1365.929688 L 494 1365.929688 Z M 494 365.679688 " clip-rule="nonzero"/></clipPath><clipPath id="729a03f774"><path d="M 532 382.535156 L 1474 382.535156 L 1474 1307.804688 L 532 1307.804688 Z M 532 382.535156 " clip-rule="nonzero"/></clipPath><clipPath id="9d39e3b378"><path d="M 567 396.394531 L 1448 396.394531 L 1448 1261.679688 L 567 1261.679688 Z M 567 396.394531 " clip-rule="nonzero"/></clipPath><clipPath id="224031b272"><path d="M 595 421.078125 L 1418 421.078125 L 1418 1229 L 595 1229 Z M 595 421.078125 " clip-rule="nonzero"/></clipPath><clipPath id="001d2dc3f9"><path d="M 629 444.75 L 1390 444.75 L 1390 1191.5625 L 629 1191.5625 Z M 629 444.75 " clip-rule="nonzero"/></clipPath><clipPath id="7c71ce9a38"><path d="M 656 471.078125 L 1363.613281 471.078125 L 1363.613281 1165.402344 L 656 1165.402344 Z M 656 471.078125 " clip-rule="nonzero"/></clipPath><clipPath id="d7e15a4e2a"><path d="M 677 489.382812 L 1336 489.382812 L 1336 1135.722656 L 677 1135.722656 Z M 677 489.382812 " clip-rule="nonzero"/></clipPath><clipPath id="011b6b38ef"><path d="M 695 489.382812 L 1320.886719 489.382812 L 1320.886719 1103.480469 L 695 1103.480469 Z M 695 489.382812 " clip-rule="nonzero"/></clipPath><clipPath id="cdc7763c2a"><path d="M 710 516 L 1309 516 L 1309 1103.730469 L 710 1103.730469 Z M 710 516 " clip-rule="nonzero"/></clipPath><clipPath id="3b1e7ad096"><path d="M 725 516 L 1308.945312 516 L 1308.945312 1088.734375 L 725 1088.734375 Z M 725 516 " clip-rule="nonzero"/></clipPath><clipPath id="c57bcb1bb9"><path d="M 566.519531 421.078125 L 945.175781 421.078125 L 945.175781 792.984375 L 566.519531 792.984375 Z M 566.519531 421.078125 " clip-rule="nonzero"/></clipPath><clipPath id="2379fd12d7"><path d="M 594.5 559.101562 L 973.15625 559.101562 L 973.15625 931 L 594.5 931 Z M 594.5 559.101562 " clip-rule="nonzero"/></clipPath><clipPath id="8c35964124"><path d="M 1002.691406 533.269531 L 1381.347656 533.269531 L 1381.347656 905 L 1002.691406 905 Z M 1002.691406 533.269531 " clip-rule="nonzero"/></clipPath><clipPath id="cb77b1f52c"><path d="M 1095.601562 421.078125 L 1474.257812 421.078125 L 1474.257812 792.984375 L 1095.601562 792.984375 Z M 1095.601562 421.078125 " clip-rule="nonzero"/></clipPath><clipPath id="ce99ccd9db"><path d="M 297 238 L 1708.855469 238 L 1708.855469 1623.519531 L 297 1623.519531 Z M 297 238 " clip-rule="nonzero"/></clipPath></defs><path fill="#ffffff" d="M 1065.808594 874.6875 L 950.003906 874.6875 C 759.738281 874.6875 601.714844 1013.214844 571.550781 1194.957031 C 691.441406 1353.054688 841.070312 1478.757812 1007.90625 1568.902344 C 1174.738281 1478.757812 1324.375 1353.054688 1444.25 1194.957031 C 1414.089844 1013.214844 1256.066406 874.6875 1065.808594 874.6875 Z M 1280.074219 564.851562 C 1280.074219 715.160156 1158.214844 837.019531 1007.90625 837.019531 C 857.597656 837.019531 735.753906 715.160156 735.753906 564.851562 C 735.753906 414.539062 857.597656 292.699219 1007.90625 292.699219 C 1158.214844 292.699219 1280.074219 414.539062 1280.074219 564.851562 " fill-opacity="1" fill-rule="nonzero"/><g clip-path="url(#9561d478e7)"><path fill="#ffffff" d="M 1007.6875 206.660156 C 777.210938 208.113281 549.152344 270.5625 348.585938 387.230469 C 346.253906 388.574219 344.109375 389.800781 342.019531 391.046875 C 333.019531 396.347656 327.667969 405.964844 328.003906 416.167969 C 335.691406 633.191406 397.886719 847.886719 507.84375 1036.980469 C 535.609375 1084.738281 566.328125 1130.828125 599.144531 1173.96875 C 710.175781 1320.386719 847.613281 1439.847656 1007.90625 1529.351562 C 1168.191406 1439.847656 1305.621094 1320.386719 1416.644531 1174 C 1449.476562 1130.828125 1480.199219 1084.738281 1507.964844 1036.980469 C 1617.914062 847.90625 1680.097656 633.222656 1687.804688 416.136719 C 1688.140625 405.953125 1682.792969 396.347656 1673.839844 391.078125 C 1671.699219 389.800781 1669.542969 388.574219 1667.40625 387.34375 C 1466.664062 270.5625 1238.589844 208.113281 1007.6875 206.660156 Z M 1007.90625 1608.300781 L 991.421875 1599.398438 C 815.292969 1504.230469 664.730469 1375.210938 543.921875 1215.910156 C 509.414062 1170.535156 477.101562 1122.050781 447.898438 1071.839844 C 332.226562 872.910156 266.800781 647.011719 258.703125 418.527344 C 257.53125 382.894531 275.933594 349.519531 306.746094 331.351562 C 309.035156 329.980469 311.464844 328.597656 313.890625 327.1875 C 524.726562 204.539062 764.695312 138.847656 1007.6875 137.332031 C 1251.121094 138.847656 1491.078125 204.539062 1702.085938 327.300781 C 1704.335938 328.597656 1706.761719 329.980469 1709.125 331.390625 C 1739.878906 349.519531 1758.285156 382.894531 1757.105469 418.464844 L 1757.105469 418.527344 C 1749.011719 647.011719 1683.589844 872.910156 1567.910156 1071.839844 C 1538.703125 1122.050781 1506.382812 1170.535156 1471.851562 1215.941406 C 1351.078125 1375.210938 1200.511719 1504.230469 1024.386719 1599.398438 L 1007.90625 1608.300781 " fill-opacity="1" fill-rule="nonzero"/></g><path fill="#fd8a20" d="M 1070.511719 906.925781 L 945.3125 906.925781 C 739.613281 906.925781 568.769531 1056.691406 536.160156 1253.171875 C 665.773438 1424.09375 827.542969 1559.996094 1007.910156 1657.453125 C 1188.277344 1559.996094 1350.054688 1424.09375 1479.652344 1253.171875 C 1447.042969 1056.691406 1276.199219 906.925781 1070.511719 906.925781 Z M 1302.15625 571.953125 C 1302.15625 734.457031 1170.414062 866.199219 1007.910156 866.199219 C 845.410156 866.199219 713.683594 734.457031 713.683594 571.953125 C 713.683594 409.449219 845.410156 277.726562 1007.910156 277.726562 C 1170.414062 277.726562 1302.15625 409.449219 1302.15625 571.953125 " fill-opacity="1" fill-rule="nonzero"/><g clip-path="url(#1a773f04f4)"><path fill="#ffffff" d="M 1007.675781 184.707031 C 758.503906 186.277344 511.945312 253.792969 295.105469 379.925781 C 292.585938 381.375 290.265625 382.703125 288.007812 384.050781 C 278.277344 389.78125 272.492188 400.179688 272.855469 411.207031 C 281.167969 645.839844 348.40625 877.949219 467.285156 1082.382812 C 497.304688 1134.011719 530.511719 1183.84375 565.992188 1230.484375 C 686.027344 1388.777344 834.613281 1517.933594 1007.910156 1614.691406 C 1181.199219 1517.933594 1329.777344 1388.777344 1449.808594 1230.519531 C 1485.300781 1183.84375 1518.515625 1134.011719 1548.535156 1082.382812 C 1667.40625 877.96875 1734.632812 645.871094 1742.960938 411.175781 C 1743.328125 400.167969 1737.542969 389.78125 1727.863281 384.085938 C 1725.550781 382.703125 1723.21875 381.375 1720.910156 380.046875 C 1503.882812 253.792969 1257.308594 186.277344 1007.675781 184.707031 Z M 1007.910156 1700.050781 L 990.089844 1690.425781 C 799.671875 1587.539062 636.898438 1448.050781 506.289062 1275.824219 C 468.980469 1226.769531 434.046875 1174.351562 402.476562 1120.066406 C 277.421875 905.003906 206.6875 660.78125 197.933594 413.761719 C 196.667969 375.234375 216.5625 339.15625 249.875 319.515625 C 252.347656 318.03125 254.976562 316.535156 257.597656 315.011719 C 485.535156 182.414062 744.96875 111.394531 1007.675781 109.753906 C 1270.855469 111.394531 1530.277344 182.414062 1758.402344 315.132812 C 1760.835938 316.535156 1763.460938 318.03125 1766.015625 319.554688 C 1799.261719 339.15625 1819.160156 375.234375 1817.886719 413.695312 L 1817.886719 413.761719 C 1809.136719 660.78125 1738.40625 905.003906 1613.34375 1120.066406 C 1581.765625 1174.351562 1546.824219 1226.769531 1509.492188 1275.859375 C 1378.921875 1448.050781 1216.140625 1587.539062 1025.730469 1690.425781 L 1007.910156 1700.050781 " fill-opacity="1" fill-rule="nonzero"/></g><path fill="#ffffff" d="M 1062.417969 889.769531 L 953.386719 889.769531 C 774.246094 889.769531 625.460938 1020.195312 597.066406 1191.308594 C 709.941406 1340.160156 850.824219 1458.511719 1007.898438 1543.386719 C 1164.976562 1458.511719 1305.863281 1340.160156 1418.726562 1191.308594 C 1390.328125 1020.195312 1241.546875 889.769531 1062.417969 889.769531 Z M 1264.152344 598.050781 C 1264.152344 739.574219 1149.421875 854.304688 1007.898438 854.304688 C 866.382812 854.304688 751.664062 739.574219 751.664062 598.050781 C 751.664062 456.53125 866.382812 341.816406 1007.898438 341.816406 C 1149.421875 341.816406 1264.152344 456.53125 1264.152344 598.050781 " fill-opacity="1" fill-rule="nonzero"/><g clip-path="url(#6f59a4ca5a)"><path fill="#ffffff" d="M 1007.691406 260.808594 C 790.699219 262.175781 575.972656 320.972656 387.136719 430.820312 C 384.941406 432.082031 382.921875 433.238281 380.957031 434.414062 C 372.480469 439.402344 367.445312 448.460938 367.761719 458.0625 C 374.996094 662.398438 433.554688 864.535156 537.082031 1042.574219 C 563.226562 1087.535156 592.144531 1130.929688 623.042969 1171.550781 C 727.578125 1309.402344 856.980469 1421.878906 1007.898438 1506.148438 C 1158.8125 1421.878906 1288.207031 1309.402344 1392.734375 1171.578125 C 1423.644531 1130.929688 1452.574219 1087.535156 1478.714844 1042.574219 C 1582.238281 864.554688 1640.78125 662.425781 1648.035156 458.03125 C 1648.355469 448.449219 1643.316406 439.402344 1634.886719 434.441406 C 1632.875 433.238281 1630.84375 432.082031 1628.832031 430.925781 C 1439.828125 320.972656 1225.09375 262.175781 1007.691406 260.808594 Z M 1007.898438 1580.480469 L 992.378906 1572.101562 C 826.550781 1482.496094 684.796875 1361.023438 571.050781 1211.035156 C 538.558594 1168.316406 508.136719 1122.667969 480.644531 1075.390625 C 371.734375 888.097656 310.136719 675.410156 302.511719 460.289062 C 301.40625 426.734375 318.734375 395.3125 347.746094 378.210938 C 349.898438 376.917969 352.1875 375.613281 354.472656 374.289062 C 552.976562 258.8125 778.910156 196.960938 1007.691406 195.535156 C 1236.890625 196.960938 1462.816406 258.8125 1661.484375 374.394531 C 1663.605469 375.613281 1665.886719 376.917969 1668.113281 378.246094 C 1697.066406 395.3125 1714.394531 426.734375 1713.285156 460.226562 L 1713.285156 460.289062 C 1705.667969 675.410156 1644.070312 888.097656 1535.15625 1075.390625 C 1507.65625 1122.667969 1477.226562 1168.316406 1444.710938 1211.066406 C 1331.003906 1361.023438 1189.242188 1482.496094 1023.417969 1572.101562 L 1007.898438 1580.480469 " fill-opacity="1" fill-rule="nonzero"/></g><path fill="#ffffff" d="M 1053.992188 885.820312 L 954.035156 885.820312 C 789.804688 885.820312 653.402344 1005.390625 627.371094 1162.257812 C 730.851562 1298.722656 860.007812 1407.226562 1004.007812 1485.03125 C 1148.011719 1407.226562 1277.171875 1298.722656 1380.644531 1162.257812 C 1354.609375 1005.390625 1218.210938 885.820312 1053.992188 885.820312 Z M 1238.933594 618.382812 C 1238.933594 748.125 1133.75 853.304688 1004.007812 853.304688 C 874.273438 853.304688 769.101562 748.125 769.101562 618.382812 C 769.101562 488.640625 874.273438 383.472656 1004.007812 383.472656 C 1133.75 383.472656 1238.933594 488.640625 1238.933594 618.382812 " fill-opacity="1" fill-rule="nonzero"/><g clip-path="url(#5e3ee11017)"><path fill="#ffffff" d="M 1003.820312 309.207031 C 804.886719 310.460938 608.035156 364.363281 434.914062 465.070312 C 432.902344 466.226562 431.050781 467.285156 429.246094 468.363281 C 421.476562 472.9375 416.859375 481.238281 417.152344 490.042969 C 423.785156 677.371094 477.46875 862.683594 572.378906 1025.902344 C 596.347656 1067.125 622.859375 1106.90625 651.1875 1144.144531 C 747.023438 1270.523438 865.652344 1373.640625 1004.007812 1450.894531 C 1142.363281 1373.640625 1260.984375 1270.523438 1356.816406 1144.171875 C 1385.152344 1106.90625 1411.671875 1067.125 1435.640625 1025.902344 C 1530.542969 862.699219 1584.214844 677.398438 1590.867188 490.015625 C 1591.160156 481.230469 1586.542969 472.9375 1578.8125 468.390625 C 1576.96875 467.285156 1575.105469 466.226562 1573.261719 465.164062 C 1399.988281 364.363281 1203.125 310.460938 1003.820312 309.207031 Z M 1004.007812 1519.042969 L 989.78125 1511.359375 C 837.753906 1429.214844 707.796875 1317.847656 603.519531 1180.347656 C 573.734375 1141.179688 545.84375 1099.332031 520.636719 1055.992188 C 420.792969 884.285156 364.324219 689.300781 357.332031 492.082031 C 356.320312 461.324219 372.207031 432.519531 398.800781 416.835938 C 400.777344 415.652344 402.875 414.457031 404.96875 413.242188 C 586.949219 307.375 794.082031 250.675781 1003.820312 249.367188 C 1213.941406 250.675781 1421.0625 307.375 1603.195312 413.339844 C 1605.140625 414.457031 1607.230469 415.652344 1609.273438 416.867188 C 1635.816406 432.519531 1651.703125 461.324219 1650.6875 492.027344 L 1650.6875 492.082031 C 1643.699219 689.300781 1587.230469 884.285156 1487.378906 1055.992188 C 1462.167969 1099.332031 1434.273438 1141.179688 1404.464844 1180.371094 C 1300.21875 1317.847656 1170.257812 1429.214844 1018.238281 1511.359375 L 1004.007812 1519.042969 " fill-opacity="1" fill-rule="nonzero"/></g><path fill="#ffffff" d="M 1049.519531 885.105469 L 957.285156 885.105469 C 805.738281 885.105469 679.875 995.441406 655.851562 1140.191406 C 751.339844 1266.117188 870.519531 1366.238281 1003.398438 1438.035156 C 1136.28125 1366.238281 1255.464844 1266.117188 1350.941406 1140.191406 C 1326.917969 995.441406 1201.054688 885.105469 1049.519531 885.105469 Z M 1220.179688 638.324219 C 1220.179688 758.042969 1123.121094 855.101562 1003.398438 855.101562 C 883.683594 855.101562 786.636719 758.042969 786.636719 638.324219 C 786.636719 518.601562 883.683594 421.558594 1003.398438 421.558594 C 1123.121094 421.558594 1220.179688 518.601562 1220.179688 638.324219 " fill-opacity="1" fill-rule="nonzero"/><g clip-path="url(#2e7999d510)"><path fill="#ffffff" d="M 1003.226562 353.027344 C 819.65625 354.1875 638.011719 403.925781 478.261719 496.851562 C 476.40625 497.921875 474.695312 498.898438 473.03125 499.890625 C 465.863281 504.113281 461.601562 511.773438 461.871094 519.898438 C 467.992188 692.757812 517.53125 863.757812 605.109375 1014.367188 C 627.226562 1052.40625 651.691406 1089.117188 677.828125 1123.476562 C 766.261719 1240.09375 875.730469 1335.246094 1003.398438 1406.53125 C 1131.066406 1335.246094 1240.527344 1240.09375 1328.957031 1123.503906 C 1355.105469 1089.117188 1379.574219 1052.40625 1401.691406 1014.367188 C 1489.265625 863.773438 1538.792969 692.78125 1544.929688 519.875 C 1545.199219 511.765625 1540.9375 504.113281 1533.804688 499.917969 C 1532.101562 498.898438 1530.386719 497.921875 1528.683594 496.941406 C 1368.792969 403.925781 1187.136719 354.1875 1003.226562 353.027344 Z M 1003.398438 1469.417969 L 990.269531 1462.328125 C 849.988281 1386.527344 730.066406 1283.761719 633.84375 1156.882812 C 606.359375 1120.742188 580.621094 1082.125 557.363281 1042.132812 C 465.230469 883.6875 413.121094 703.765625 406.671875 521.78125 C 405.738281 493.398438 420.398438 466.816406 444.9375 452.347656 C 446.761719 451.253906 448.695312 450.152344 450.628906 449.027344 C 618.554688 351.339844 809.6875 299.019531 1003.226562 297.8125 C 1197.117188 299.019531 1388.238281 351.339844 1556.304688 449.117188 C 1558.097656 450.152344 1560.03125 451.253906 1561.910156 452.375 C 1586.40625 466.816406 1601.066406 493.398438 1600.128906 521.730469 L 1600.128906 521.78125 C 1593.683594 703.765625 1541.574219 883.6875 1449.4375 1042.132812 C 1426.171875 1082.125 1400.429688 1120.742188 1372.925781 1156.90625 C 1276.730469 1283.761719 1156.808594 1386.527344 1016.527344 1462.328125 L 1003.398438 1469.417969 " fill-opacity="1" fill-rule="nonzero"/></g><path fill="#ffffff" d="M 1045.886719 884.378906 L 959.617188 884.378906 C 817.875 884.378906 700.152344 987.578125 677.683594 1122.96875 C 766.996094 1240.746094 878.464844 1334.390625 1002.75 1401.542969 C 1127.03125 1334.390625 1238.507812 1240.746094 1327.808594 1122.96875 C 1305.339844 987.578125 1187.617188 884.378906 1045.886719 884.378906 Z M 1205.503906 653.5625 C 1205.503906 765.539062 1114.726562 856.320312 1002.75 856.320312 C 890.777344 856.320312 800.007812 765.539062 800.007812 653.5625 C 800.007812 541.585938 890.777344 450.824219 1002.75 450.824219 C 1114.726562 450.824219 1205.503906 541.585938 1205.503906 653.5625 " fill-opacity="1" fill-rule="nonzero"/><g clip-path="url(#127f6a4272)"><path fill="#ffffff" d="M 1002.585938 386.726562 C 830.890625 387.808594 660.996094 434.332031 511.582031 521.246094 C 509.84375 522.242188 508.246094 523.160156 506.691406 524.085938 C 499.984375 528.035156 496 535.203125 496.25 542.800781 C 501.976562 704.476562 548.308594 864.414062 630.222656 1005.285156 C 650.910156 1040.859375 673.792969 1075.195312 698.238281 1107.335938 C 780.953125 1216.40625 883.335938 1305.402344 1002.75 1372.078125 C 1122.15625 1305.402344 1224.535156 1216.40625 1307.242188 1107.359375 C 1331.699219 1075.195312 1354.589844 1040.859375 1375.273438 1005.285156 C 1457.183594 864.429688 1503.507812 704.5 1509.246094 542.777344 C 1509.496094 535.191406 1505.511719 528.035156 1498.84375 524.109375 C 1497.25 523.160156 1495.644531 522.242188 1494.050781 521.328125 C 1344.503906 434.332031 1174.601562 387.808594 1002.585938 386.726562 Z M 1002.75 1430.894531 L 990.46875 1424.261719 C 859.261719 1353.367188 747.097656 1257.25 657.097656 1138.578125 C 631.394531 1104.773438 607.320312 1068.65625 585.566406 1031.25 C 499.394531 883.058594 450.65625 714.773438 444.625 544.558594 C 443.75 518.011719 457.460938 493.152344 480.414062 479.617188 C 482.117188 478.597656 483.929688 477.566406 485.734375 476.515625 C 642.800781 385.144531 821.566406 336.207031 1002.585938 335.078125 C 1183.933594 336.207031 1362.691406 385.144531 1519.886719 476.597656 C 1521.5625 477.566406 1523.371094 478.597656 1525.128906 479.644531 C 1548.042969 493.152344 1561.75 518.011719 1560.875 544.515625 L 1560.875 544.558594 C 1554.84375 714.773438 1506.105469 883.058594 1419.929688 1031.25 C 1398.171875 1068.65625 1374.09375 1104.773438 1348.371094 1138.601562 C 1258.398438 1257.25 1146.230469 1353.367188 1015.027344 1424.261719 L 1002.75 1430.894531 " fill-opacity="1" fill-rule="nonzero"/></g><path fill="#ffffff" d="M 1042.792969 867.085938 L 964.09375 867.085938 C 834.785156 867.085938 727.390625 961.230469 706.890625 1084.742188 C 788.367188 1192.1875 890.058594 1277.617188 1003.441406 1338.882812 C 1116.820312 1277.617188 1218.519531 1192.1875 1299.984375 1084.742188 C 1279.488281 961.230469 1172.09375 867.085938 1042.792969 867.085938 Z M 1188.410156 656.519531 C 1188.410156 758.671875 1105.59375 841.488281 1003.441406 841.488281 C 901.292969 841.488281 818.484375 758.671875 818.484375 656.519531 C 818.484375 554.363281 901.292969 471.5625 1003.441406 471.5625 C 1105.59375 471.5625 1188.410156 554.363281 1188.410156 656.519531 " fill-opacity="1" fill-rule="nonzero"/><g clip-path="url(#05d270062d)"><path fill="#ffffff" d="M 1003.292969 413.085938 C 846.660156 414.074219 691.667969 456.515625 555.359375 535.808594 C 553.777344 536.71875 552.320312 537.550781 550.898438 538.398438 C 544.78125 542 541.144531 548.539062 541.375 555.46875 C 546.597656 702.964844 588.867188 848.871094 663.59375 977.382812 C 682.464844 1009.839844 703.339844 1041.164062 725.644531 1070.480469 C 801.101562 1169.988281 894.503906 1251.175781 1003.441406 1312 C 1112.375 1251.175781 1205.773438 1169.988281 1281.226562 1070.503906 C 1303.535156 1041.164062 1324.417969 1009.839844 1343.289062 977.382812 C 1418.011719 848.882812 1460.269531 702.984375 1465.507812 555.449219 C 1465.734375 548.53125 1462.101562 542 1456.015625 538.421875 C 1454.5625 537.550781 1453.097656 536.71875 1451.644531 535.882812 C 1315.21875 456.515625 1160.21875 414.074219 1003.292969 413.085938 Z M 1003.441406 1365.660156 L 992.238281 1359.609375 C 872.539062 1294.929688 770.21875 1207.246094 688.113281 1098.984375 C 664.660156 1068.148438 642.703125 1035.195312 622.855469 1001.070312 C 544.242188 865.878906 499.78125 712.355469 494.277344 557.078125 C 493.480469 532.859375 505.988281 510.175781 526.925781 497.832031 C 528.480469 496.898438 530.132812 495.957031 531.78125 495 C 675.066406 411.648438 838.152344 367 1003.292969 365.972656 C 1168.734375 367 1331.808594 411.648438 1475.214844 495.078125 C 1476.742188 495.957031 1478.390625 496.898438 1479.996094 497.855469 C 1500.898438 510.175781 1513.40625 532.859375 1512.605469 557.035156 L 1512.605469 557.078125 C 1507.105469 712.355469 1462.644531 865.878906 1384.027344 1001.070312 C 1364.175781 1035.195312 1342.210938 1068.148438 1318.742188 1099.003906 C 1236.664062 1207.246094 1134.335938 1294.929688 1014.644531 1359.609375 L 1003.441406 1365.660156 " fill-opacity="1" fill-rule="nonzero"/></g><path fill="#ffffff" d="M 1039.390625 846.257812 L 966.605469 846.257812 C 847.015625 846.257812 747.695312 933.328125 728.738281 1047.558594 C 804.089844 1146.925781 898.136719 1225.9375 1002.996094 1282.59375 C 1107.855469 1225.9375 1201.910156 1146.925781 1277.253906 1047.558594 C 1258.296875 933.328125 1158.972656 846.257812 1039.390625 846.257812 Z M 1174.0625 651.515625 C 1174.0625 745.992188 1097.472656 822.582031 1002.996094 822.582031 C 908.527344 822.582031 831.941406 745.992188 831.941406 651.515625 C 831.941406 557.042969 908.527344 480.460938 1002.996094 480.460938 C 1097.472656 480.460938 1174.0625 557.042969 1174.0625 651.515625 " fill-opacity="1" fill-rule="nonzero"/><g clip-path="url(#729a03f774)"><path fill="#ffffff" d="M 1002.859375 426.382812 C 858 427.296875 714.65625 466.546875 588.59375 539.878906 C 587.128906 540.722656 585.78125 541.492188 584.46875 542.277344 C 578.808594 545.609375 575.449219 551.652344 575.660156 558.066406 C 580.492188 694.472656 619.582031 829.414062 688.691406 948.265625 C 706.144531 978.28125 725.453125 1007.25 746.078125 1034.367188 C 815.863281 1126.394531 902.25 1201.480469 1002.996094 1257.734375 C 1103.742188 1201.480469 1190.121094 1126.394531 1259.902344 1034.386719 C 1280.539062 1007.25 1299.847656 978.28125 1317.300781 948.265625 C 1386.40625 829.425781 1425.492188 694.492188 1430.335938 558.042969 C 1430.546875 551.644531 1427.183594 545.609375 1421.558594 542.296875 C 1420.214844 541.492188 1418.855469 540.722656 1417.511719 539.949219 C 1291.339844 466.546875 1147.988281 427.296875 1002.859375 426.382812 Z M 1002.996094 1307.359375 L 992.636719 1301.761719 C 881.933594 1241.945312 787.300781 1160.851562 711.371094 1060.726562 C 689.679688 1032.207031 669.371094 1001.734375 651.015625 970.175781 C 578.3125 845.144531 537.191406 703.160156 532.101562 559.550781 C 531.363281 537.152344 542.933594 516.175781 562.296875 504.757812 C 563.734375 503.894531 565.265625 503.023438 566.789062 502.140625 C 699.304688 425.050781 850.132812 383.761719 1002.859375 382.808594 C 1155.867188 383.761719 1306.6875 425.050781 1439.3125 502.210938 C 1440.726562 503.023438 1442.25 503.894531 1443.734375 504.78125 C 1463.066406 516.175781 1474.632812 537.152344 1473.894531 559.511719 L 1473.894531 559.550781 C 1468.808594 703.160156 1427.6875 845.144531 1354.976562 970.175781 C 1336.621094 1001.734375 1316.304688 1032.207031 1294.601562 1060.746094 C 1218.691406 1160.851562 1124.054688 1241.945312 1013.359375 1301.761719 L 1002.996094 1307.359375 " fill-opacity="1" fill-rule="nonzero"/></g><path fill="#ffffff" d="M 1041.535156 829.949219 L 973.484375 829.949219 C 861.675781 829.949219 768.816406 911.355469 751.089844 1018.152344 C 821.542969 1111.054688 909.472656 1184.925781 1007.507812 1237.894531 C 1105.546875 1184.925781 1193.480469 1111.054688 1263.921875 1018.152344 C 1246.199219 911.355469 1153.335938 829.949219 1041.535156 829.949219 Z M 1167.445312 647.875 C 1167.445312 736.207031 1095.835938 807.8125 1007.507812 807.8125 C 919.183594 807.8125 847.582031 736.207031 847.582031 647.875 C 847.582031 559.546875 919.183594 487.949219 1007.507812 487.949219 C 1095.835938 487.949219 1167.445312 559.546875 1167.445312 647.875 " fill-opacity="1" fill-rule="nonzero"/><g clip-path="url(#9d39e3b378)"><path fill="#ffffff" d="M 1007.378906 437.390625 C 871.945312 438.242188 737.925781 474.941406 620.066406 543.5 C 618.695312 544.289062 617.4375 545.011719 616.207031 545.742188 C 610.917969 548.859375 607.773438 554.511719 607.972656 560.503906 C 612.488281 688.035156 649.039062 814.199219 713.652344 925.320312 C 729.96875 953.382812 748.019531 980.46875 767.304688 1005.820312 C 832.550781 1091.859375 913.3125 1162.058594 1007.507812 1214.65625 C 1101.699219 1162.058594 1182.457031 1091.859375 1247.699219 1005.835938 C 1266.992188 980.46875 1285.046875 953.382812 1301.363281 925.320312 C 1365.972656 814.210938 1402.515625 688.054688 1407.042969 560.484375 C 1407.242188 554.503906 1404.097656 548.859375 1398.835938 545.761719 C 1397.582031 545.011719 1396.3125 544.289062 1395.054688 543.566406 C 1277.09375 474.941406 1143.066406 438.242188 1007.378906 437.390625 Z M 1007.507812 1261.050781 L 997.820312 1255.816406 C 894.320312 1199.894531 805.847656 1124.074219 734.855469 1030.464844 C 714.574219 1003.800781 695.585938 975.308594 678.425781 945.800781 C 610.453125 828.90625 572.007812 696.160156 567.25 561.894531 C 566.558594 540.953125 577.375 521.339844 595.480469 510.664062 C 596.824219 509.859375 598.253906 509.046875 599.679688 508.21875 C 723.574219 436.144531 864.589844 397.539062 1007.378906 396.652344 C 1150.433594 397.539062 1291.4375 436.144531 1415.4375 508.285156 C 1416.757812 509.046875 1418.183594 509.859375 1419.574219 510.6875 C 1437.644531 521.339844 1448.460938 540.953125 1447.769531 561.855469 L 1447.769531 561.894531 C 1443.011719 696.160156 1404.566406 828.90625 1336.589844 945.800781 C 1319.425781 975.308594 1300.433594 1003.800781 1280.140625 1030.484375 C 1209.167969 1124.074219 1120.691406 1199.894531 1017.195312 1255.816406 L 1007.507812 1261.050781 " fill-opacity="1" fill-rule="nonzero"/></g><path fill="#ffffff" d="M 1038.324219 826.15625 L 974.742188 826.15625 C 870.273438 826.15625 783.511719 902.214844 766.949219 1002 C 832.773438 1088.804688 914.929688 1157.820312 1006.53125 1207.316406 C 1098.128906 1157.820312 1180.289062 1088.804688 1246.105469 1002 C 1229.546875 902.214844 1142.78125 826.15625 1038.324219 826.15625 Z M 1155.964844 656.039062 C 1155.964844 738.570312 1089.058594 805.476562 1006.53125 805.476562 C 924.003906 805.476562 857.105469 738.570312 857.105469 656.039062 C 857.105469 573.511719 924.003906 506.617188 1006.53125 506.617188 C 1089.058594 506.617188 1155.964844 573.511719 1155.964844 656.039062 " fill-opacity="1" fill-rule="nonzero"/><g clip-path="url(#224031b272)"><path fill="#ffffff" d="M 1006.410156 459.375 C 879.867188 460.171875 754.652344 494.460938 644.53125 558.519531 C 643.25 559.253906 642.074219 559.929688 640.925781 560.613281 C 635.984375 563.523438 633.046875 568.804688 633.230469 574.40625 C 637.453125 693.5625 671.601562 811.441406 731.972656 915.265625 C 747.21875 941.484375 764.082031 966.789062 782.101562 990.476562 C 843.0625 1070.867188 918.519531 1136.457031 1006.53125 1185.597656 C 1094.535156 1136.457031 1169.992188 1070.867188 1230.949219 990.496094 C 1248.972656 966.789062 1265.84375 941.484375 1281.089844 915.265625 C 1341.457031 811.453125 1375.597656 693.582031 1379.828125 574.386719 C 1380.011719 568.796875 1377.078125 563.523438 1372.160156 560.632812 C 1370.988281 559.929688 1369.800781 559.253906 1368.628906 558.582031 C 1258.410156 494.460938 1133.1875 460.171875 1006.410156 459.375 Z M 1006.53125 1228.949219 L 997.480469 1224.058594 C 900.777344 1171.808594 818.109375 1100.96875 751.78125 1013.503906 C 732.832031 988.59375 715.09375 961.972656 699.058594 934.402344 C 635.546875 825.179688 599.628906 701.152344 595.179688 575.703125 C 594.539062 556.136719 604.640625 537.8125 621.558594 527.839844 C 622.816406 527.085938 624.148438 526.324219 625.480469 525.550781 C 741.242188 458.210938 872.996094 422.144531 1006.410156 421.3125 C 1140.066406 422.144531 1271.816406 458.210938 1387.671875 525.613281 C 1388.90625 526.324219 1390.238281 527.085938 1391.535156 527.859375 C 1408.421875 537.8125 1418.527344 556.136719 1417.878906 575.667969 L 1417.878906 575.703125 C 1413.433594 701.152344 1377.515625 825.179688 1314 934.402344 C 1297.964844 961.972656 1280.21875 988.59375 1261.257812 1013.523438 C 1194.949219 1100.96875 1112.28125 1171.808594 1015.582031 1224.058594 L 1006.53125 1228.949219 " fill-opacity="1" fill-rule="nonzero"/></g><path fill="#ffffff" d="M 1039.136719 819.125 L 980.371094 819.125 C 883.824219 819.125 803.636719 889.417969 788.332031 981.640625 C 849.167969 1061.863281 925.097656 1125.648438 1009.753906 1171.390625 C 1094.410156 1125.648438 1170.339844 1061.863281 1231.167969 981.640625 C 1215.863281 889.417969 1135.675781 819.125 1039.136719 819.125 Z M 1147.859375 661.902344 C 1147.859375 738.175781 1086.023438 800.011719 1009.753906 800.011719 C 933.484375 800.011719 871.65625 738.175781 871.65625 661.902344 C 871.65625 585.628906 933.484375 523.804688 1009.753906 523.804688 C 1086.023438 523.804688 1147.859375 585.628906 1147.859375 661.902344 " fill-opacity="1" fill-rule="nonzero"/><g clip-path="url(#001d2dc3f9)"><path fill="#ffffff" d="M 1009.640625 480.144531 C 892.691406 480.882812 776.964844 512.570312 675.191406 571.773438 C 674.007812 572.453125 672.921875 573.078125 671.859375 573.710938 C 667.292969 576.398438 664.578125 581.28125 664.75 586.457031 C 668.648438 696.582031 700.210938 805.523438 756.003906 901.476562 C 770.09375 925.710938 785.683594 949.097656 802.335938 970.992188 C 858.675781 1045.285156 928.414062 1105.90625 1009.753906 1151.320312 C 1091.085938 1105.90625 1160.824219 1045.285156 1217.160156 971.007812 C 1233.820312 949.097656 1249.410156 925.710938 1263.5 901.476562 C 1319.292969 805.535156 1350.84375 696.597656 1354.753906 586.441406 C 1354.925781 581.273438 1352.210938 576.398438 1347.667969 573.726562 C 1346.582031 573.078125 1345.488281 572.453125 1344.402344 571.832031 C 1242.542969 512.570312 1126.808594 480.882812 1009.640625 480.144531 Z M 1009.753906 1191.382812 L 1001.386719 1186.867188 C 912.015625 1138.574219 835.617188 1073.105469 774.3125 992.273438 C 756.800781 969.246094 740.40625 944.644531 725.585938 919.164062 C 666.890625 818.222656 633.691406 703.597656 629.582031 587.65625 C 628.988281 569.574219 638.328125 552.636719 653.960938 543.417969 C 655.121094 542.722656 656.355469 542.019531 657.585938 541.304688 C 764.570312 479.070312 886.339844 445.734375 1009.640625 444.96875 C 1133.167969 445.734375 1254.929688 479.070312 1362.003906 541.363281 C 1363.144531 542.019531 1364.375 542.722656 1365.574219 543.4375 C 1381.179688 552.636719 1390.519531 569.574219 1389.921875 587.625 L 1389.921875 587.65625 C 1385.816406 703.597656 1352.617188 818.222656 1293.917969 919.164062 C 1279.097656 944.644531 1262.695312 969.246094 1245.171875 992.289062 C 1183.890625 1073.105469 1107.488281 1138.574219 1018.117188 1186.867188 L 1009.753906 1191.382812 " fill-opacity="1" fill-rule="nonzero"/></g><path fill="#ffffff" d="M 1037.058594 819.058594 L 982.4375 819.058594 C 892.695312 819.058594 818.164062 884.398438 803.9375 970.117188 C 860.484375 1044.6875 931.058594 1103.976562 1009.746094 1146.492188 C 1088.4375 1103.976562 1159.015625 1044.6875 1215.554688 970.117188 C 1201.328125 884.398438 1126.792969 819.058594 1037.058594 819.058594 Z M 1138.117188 672.921875 C 1138.117188 743.816406 1080.644531 801.292969 1009.746094 801.292969 C 938.855469 801.292969 881.382812 743.816406 881.382812 672.921875 C 881.382812 602.027344 938.855469 544.558594 1009.746094 544.558594 C 1080.644531 544.558594 1138.117188 602.027344 1138.117188 672.921875 " fill-opacity="1" fill-rule="nonzero"/><g clip-path="url(#7c71ce9a38)"><path fill="#ffffff" d="M 1009.644531 503.976562 C 900.9375 504.660156 793.371094 534.117188 698.773438 589.144531 C 697.671875 589.777344 696.660156 590.359375 695.675781 590.945312 C 691.429688 593.445312 688.90625 597.984375 689.066406 602.792969 C 692.691406 705.15625 722.027344 806.417969 773.886719 895.609375 C 786.984375 918.132812 801.472656 939.871094 816.953125 960.21875 C 869.320312 1029.277344 934.144531 1085.625 1009.746094 1127.839844 C 1085.347656 1085.625 1150.167969 1029.277344 1202.535156 960.234375 C 1218.019531 939.871094 1232.511719 918.132812 1245.605469 895.609375 C 1297.464844 806.429688 1326.796875 705.171875 1330.429688 602.777344 C 1330.589844 597.976562 1328.066406 593.445312 1323.84375 590.960938 C 1322.835938 590.359375 1321.816406 589.777344 1320.808594 589.199219 C 1226.125 534.117188 1118.550781 504.660156 1009.644531 503.976562 Z M 1009.746094 1165.078125 L 1001.972656 1160.878906 C 918.898438 1115.992188 847.886719 1055.136719 790.90625 980 C 774.628906 958.601562 759.386719 935.730469 745.613281 912.046875 C 691.054688 818.222656 660.199219 711.675781 656.378906 603.90625 C 655.824219 587.101562 664.503906 571.359375 679.039062 562.789062 C 680.117188 562.144531 681.265625 561.492188 682.40625 560.824219 C 781.851562 502.976562 895.035156 471.992188 1009.644531 471.277344 C 1124.464844 471.992188 1237.640625 502.976562 1337.167969 560.878906 C 1338.226562 561.492188 1339.371094 562.144531 1340.484375 562.808594 C 1354.992188 571.359375 1363.671875 587.101562 1363.117188 603.878906 L 1363.117188 603.90625 C 1359.300781 711.675781 1328.441406 818.222656 1273.878906 912.046875 C 1260.105469 935.730469 1244.859375 958.601562 1228.574219 980.015625 C 1171.609375 1055.136719 1100.59375 1115.992188 1017.523438 1160.878906 L 1009.746094 1165.078125 " fill-opacity="1" fill-rule="nonzero"/></g><path fill="#ffffff" d="M 1031.945312 813.355469 L 981.09375 813.355469 C 897.542969 813.355469 828.152344 874.1875 814.910156 953.992188 C 867.554688 1023.414062 933.257812 1078.613281 1006.519531 1118.195312 C 1079.777344 1078.613281 1145.484375 1023.414062 1198.125 953.992188 C 1184.878906 874.1875 1115.488281 813.355469 1031.945312 813.355469 Z M 1126.03125 677.300781 C 1126.03125 743.304688 1072.523438 796.816406 1006.519531 796.816406 C 940.515625 796.816406 887.011719 743.304688 887.011719 677.300781 C 887.011719 611.296875 940.515625 557.796875 1006.519531 557.796875 C 1072.523438 557.796875 1126.03125 611.296875 1126.03125 677.300781 " fill-opacity="1" fill-rule="nonzero"/><g clip-path="url(#d7e15a4e2a)"><path fill="#ffffff" d="M 1006.421875 520.015625 C 905.21875 520.652344 805.074219 548.074219 717 599.308594 C 715.976562 599.894531 715.035156 600.4375 714.117188 600.984375 C 710.164062 603.308594 707.816406 607.535156 707.964844 612.011719 C 711.339844 707.3125 738.652344 801.585938 786.933594 884.621094 C 799.128906 905.59375 812.617188 925.832031 827.027344 944.777344 C 875.78125 1009.070312 936.132812 1061.527344 1006.519531 1100.828125 C 1076.902344 1061.527344 1137.25 1009.070312 1186.003906 944.789062 C 1200.417969 925.832031 1213.910156 905.59375 1226.101562 884.621094 C 1274.382812 801.597656 1301.6875 707.324219 1305.074219 612 C 1305.21875 607.527344 1302.871094 603.308594 1298.941406 600.996094 C 1298 600.4375 1297.054688 599.894531 1296.113281 599.355469 C 1207.964844 548.074219 1107.816406 520.652344 1006.421875 520.015625 Z M 1006.519531 1135.5 L 999.28125 1131.589844 C 921.941406 1089.800781 855.824219 1033.144531 802.777344 963.191406 C 787.625 943.269531 773.433594 921.976562 760.613281 899.929688 C 709.816406 812.578125 681.089844 713.382812 677.53125 613.050781 C 677.019531 597.402344 685.101562 582.746094 698.628906 574.769531 C 699.632812 574.167969 700.703125 573.558594 701.765625 572.941406 C 794.347656 519.085938 899.722656 490.238281 1006.421875 489.574219 C 1113.320312 490.238281 1218.6875 519.085938 1311.34375 572.992188 C 1312.332031 573.558594 1313.398438 574.167969 1314.433594 574.785156 C 1327.941406 582.746094 1336.019531 597.402344 1335.503906 613.023438 L 1335.503906 613.050781 C 1331.949219 713.382812 1303.222656 812.578125 1252.425781 899.929688 C 1239.597656 921.976562 1225.40625 943.269531 1210.242188 963.207031 C 1157.210938 1033.144531 1091.09375 1089.800781 1013.757812 1131.589844 L 1006.519531 1135.5 " fill-opacity="1" fill-rule="nonzero"/></g><path fill="#ffffff" d="M 1032.015625 797.167969 L 983.703125 797.167969 C 904.328125 797.167969 838.40625 854.957031 825.824219 930.773438 C 875.839844 996.726562 938.261719 1049.167969 1007.859375 1086.773438 C 1077.457031 1049.167969 1139.878906 996.726562 1189.886719 930.773438 C 1177.304688 854.957031 1111.382812 797.167969 1032.015625 797.167969 Z M 1121.398438 667.914062 C 1121.398438 730.617188 1070.5625 781.453125 1007.859375 781.453125 C 945.15625 781.453125 894.324219 730.617188 894.324219 667.914062 C 894.324219 605.207031 945.15625 554.378906 1007.859375 554.378906 C 1070.5625 554.378906 1121.398438 605.207031 1121.398438 667.914062 " fill-opacity="1" fill-rule="nonzero"/><g clip-path="url(#011b6b38ef)"><path fill="#ffffff" d="M 1007.765625 518.484375 C 911.621094 519.089844 816.480469 545.144531 732.808594 593.816406 C 731.835938 594.375 730.941406 594.886719 730.070312 595.40625 C 726.316406 597.617188 724.082031 601.628906 724.222656 605.886719 C 727.429688 696.421875 753.375 785.988281 799.246094 864.871094 C 810.832031 884.792969 823.644531 904.019531 837.335938 922.019531 C 883.652344 983.097656 940.988281 1032.9375 1007.859375 1070.273438 C 1074.722656 1032.9375 1132.054688 983.097656 1178.371094 922.03125 C 1192.066406 904.019531 1204.882812 884.792969 1216.46875 864.871094 C 1262.335938 785.996094 1288.277344 696.433594 1291.492188 605.871094 C 1291.632812 601.625 1289.398438 597.617188 1285.664062 595.421875 C 1284.773438 594.886719 1283.875 594.375 1282.980469 593.863281 C 1199.238281 545.144531 1104.09375 519.089844 1007.765625 518.484375 Z M 1007.859375 1103.210938 L 1000.980469 1099.496094 C 927.503906 1059.792969 864.695312 1005.96875 814.296875 939.515625 C 799.902344 920.585938 786.421875 900.359375 774.238281 879.414062 C 725.984375 796.425781 698.691406 702.1875 695.3125 606.871094 C 694.824219 592.003906 702.5 578.082031 715.355469 570.503906 C 716.308594 569.933594 717.324219 569.355469 718.335938 568.765625 C 806.289062 517.601562 906.398438 490.195312 1007.765625 489.566406 C 1109.320312 490.195312 1209.421875 517.601562 1297.449219 568.8125 C 1298.386719 569.355469 1299.398438 569.933594 1300.386719 570.519531 C 1313.214844 578.082031 1320.894531 592.003906 1320.402344 606.84375 L 1320.402344 606.871094 C 1317.027344 702.1875 1289.734375 796.425781 1241.476562 879.414062 C 1229.289062 900.359375 1215.808594 920.585938 1201.402344 939.527344 C 1151.019531 1005.96875 1088.207031 1059.792969 1014.734375 1099.496094 L 1007.859375 1103.210938 " fill-opacity="1" fill-rule="nonzero"/></g><path fill="#ffffff" d="M 1032.589844 810.378906 L 986.367188 810.378906 C 910.417969 810.378906 847.339844 865.675781 835.300781 938.21875 C 883.15625 1001.328125 942.882812 1051.503906 1009.476562 1087.488281 C 1076.070312 1051.503906 1135.800781 1001.328125 1183.652344 938.21875 C 1171.613281 865.675781 1108.535156 810.378906 1032.589844 810.378906 Z M 1118.117188 686.703125 C 1118.117188 746.703125 1069.476562 795.34375 1009.476562 795.34375 C 949.480469 795.34375 900.84375 746.703125 900.84375 686.703125 C 900.84375 626.703125 949.480469 578.066406 1009.476562 578.066406 C 1069.476562 578.066406 1118.117188 626.703125 1118.117188 686.703125 " fill-opacity="1" fill-rule="nonzero"/><g clip-path="url(#cdc7763c2a)"><path fill="#ffffff" d="M 1009.390625 543.722656 C 917.390625 544.304688 826.359375 569.230469 746.296875 615.800781 C 745.367188 616.335938 744.511719 616.828125 743.675781 617.324219 C 740.082031 619.441406 737.949219 623.28125 738.082031 627.351562 C 741.152344 713.980469 765.976562 799.679688 809.867188 875.160156 C 820.953125 894.222656 833.214844 912.621094 846.3125 929.84375 C 890.632812 988.285156 945.492188 1035.972656 1009.476562 1071.699219 C 1073.457031 1035.972656 1128.316406 988.285156 1172.632812 929.855469 C 1185.738281 912.621094 1198 894.222656 1209.085938 875.160156 C 1252.972656 799.6875 1277.792969 713.992188 1280.871094 627.339844 C 1281.003906 623.277344 1278.871094 619.441406 1275.296875 617.335938 C 1274.441406 616.828125 1273.582031 616.335938 1272.726562 615.847656 C 1192.597656 569.230469 1101.558594 544.304688 1009.390625 543.722656 Z M 1009.476562 1103.214844 L 1002.898438 1099.660156 C 932.59375 1061.671875 872.492188 1010.171875 824.269531 946.582031 C 810.496094 928.472656 797.597656 909.117188 785.941406 889.074219 C 739.769531 809.667969 713.652344 719.5 710.421875 628.296875 C 709.953125 614.070312 717.296875 600.75 729.597656 593.496094 C 730.511719 592.949219 731.480469 592.398438 732.449219 591.835938 C 816.609375 542.878906 912.394531 516.65625 1009.390625 516.050781 C 1106.5625 516.65625 1202.34375 542.878906 1286.570312 591.878906 C 1287.46875 592.398438 1288.4375 592.949219 1289.382812 593.511719 C 1301.65625 600.75 1309.003906 614.070312 1308.535156 628.269531 L 1308.535156 628.296875 C 1305.304688 719.5 1279.1875 809.667969 1233.011719 889.074219 C 1221.355469 909.117188 1208.453125 928.472656 1194.667969 946.597656 C 1146.460938 1010.171875 1086.359375 1061.671875 1016.058594 1099.660156 L 1009.476562 1103.214844 " fill-opacity="1" fill-rule="nonzero"/></g><path fill="#ffffff" d="M 1039.472656 803.050781 L 994.398438 803.050781 C 920.339844 803.050781 858.832031 856.96875 847.09375 927.707031 C 893.757812 989.246094 952 1038.171875 1016.933594 1073.257812 C 1081.871094 1038.171875 1140.113281 989.246094 1186.773438 927.707031 C 1175.035156 856.96875 1113.527344 803.050781 1039.472656 803.050781 Z M 1122.871094 682.453125 C 1122.871094 740.957031 1075.441406 788.390625 1016.933594 788.390625 C 958.429688 788.390625 911.003906 740.957031 911.003906 682.453125 C 911.003906 623.945312 958.429688 576.523438 1016.933594 576.523438 C 1075.441406 576.523438 1122.871094 623.945312 1122.871094 682.453125 " fill-opacity="1" fill-rule="nonzero"/><g clip-path="url(#3b1e7ad096)"><path fill="#ffffff" d="M 1016.851562 543.035156 C 927.144531 543.597656 838.375 567.90625 760.308594 613.316406 C 759.402344 613.839844 758.566406 614.316406 757.753906 614.804688 C 754.25 616.867188 752.167969 620.609375 752.296875 624.582031 C 755.289062 709.054688 779.496094 792.617188 822.296875 866.21875 C 833.105469 884.808594 845.058594 902.746094 857.832031 919.539062 C 901.050781 976.527344 954.542969 1023.027344 1016.933594 1057.863281 C 1079.324219 1023.027344 1132.816406 976.527344 1176.027344 919.550781 C 1188.808594 902.746094 1200.765625 884.808594 1211.574219 866.21875 C 1254.371094 792.625 1278.574219 709.066406 1281.570312 624.566406 C 1281.703125 620.605469 1279.621094 616.867188 1276.136719 614.816406 C 1275.304688 614.316406 1274.464844 613.839844 1273.632812 613.363281 C 1195.496094 567.90625 1106.722656 543.597656 1016.851562 543.035156 Z M 1016.933594 1088.59375 L 1010.519531 1085.128906 C 941.964844 1048.085938 883.363281 997.867188 836.339844 935.863281 C 822.90625 918.203125 810.332031 899.332031 798.964844 879.789062 C 753.941406 802.359375 728.476562 714.433594 725.324219 625.5 C 724.867188 611.628906 732.03125 598.640625 744.023438 591.570312 C 744.914062 591.035156 745.859375 590.496094 746.804688 589.949219 C 828.867188 542.207031 922.269531 516.640625 1016.851562 516.050781 C 1111.601562 516.640625 1205 542.207031 1287.132812 589.992188 C 1288.007812 590.496094 1288.949219 591.035156 1289.871094 591.582031 C 1301.839844 598.640625 1309.003906 611.628906 1308.546875 625.476562 L 1308.546875 625.5 C 1305.394531 714.433594 1279.929688 802.359375 1234.90625 879.789062 C 1223.535156 899.332031 1210.957031 918.203125 1197.515625 935.875 C 1150.507812 997.867188 1091.902344 1048.085938 1023.351562 1085.128906 L 1016.933594 1088.59375 " fill-opacity="1" fill-rule="nonzero"/></g><path fill="#ffffff" d="M 770.648438 607.390625 L 741.402344 607.390625 C 693.355469 607.390625 653.453125 642.371094 645.835938 688.265625 C 676.109375 728.1875 713.894531 759.933594 756.023438 782.695312 C 798.15625 759.933594 835.941406 728.1875 866.214844 688.265625 C 858.597656 642.371094 818.691406 607.390625 770.648438 607.390625 Z M 824.753906 529.148438 C 824.753906 567.105469 793.980469 597.878906 756.023438 597.878906 C 718.070312 597.878906 687.300781 567.105469 687.300781 529.148438 C 687.300781 491.191406 718.070312 460.421875 756.023438 460.421875 C 793.980469 460.421875 824.753906 491.191406 824.753906 529.148438 " fill-opacity="1" fill-rule="nonzero"/><g clip-path="url(#c57bcb1bb9)"><path fill="#ffffff" d="M 755.96875 438.695312 C 697.769531 439.0625 640.179688 454.832031 589.53125 484.292969 C 588.941406 484.632812 588.398438 484.941406 587.871094 485.257812 C 585.597656 486.597656 584.246094 489.027344 584.332031 491.601562 C 586.273438 546.40625 601.980469 600.621094 629.746094 648.371094 C 636.757812 660.433594 644.515625 672.070312 652.804688 682.964844 C 680.839844 719.941406 715.546875 750.105469 756.023438 772.707031 C 796.5 750.105469 831.207031 719.941406 859.242188 682.972656 C 867.53125 672.070312 875.289062 660.433594 882.304688 648.371094 C 910.066406 600.625 925.769531 546.414062 927.714844 491.59375 C 927.800781 489.023438 926.449219 486.597656 924.191406 485.265625 C 923.648438 484.941406 923.105469 484.632812 922.566406 484.324219 C 871.875 454.832031 814.277344 439.0625 755.96875 438.695312 Z M 756.023438 792.644531 L 751.863281 790.398438 C 707.386719 766.367188 669.363281 733.785156 638.855469 693.558594 C 630.144531 682.097656 621.984375 669.855469 614.609375 657.175781 C 585.398438 606.941406 568.878906 549.894531 566.832031 492.199219 C 566.535156 483.199219 571.183594 474.769531 578.964844 470.183594 C 579.542969 469.835938 580.15625 469.488281 580.769531 469.132812 C 634.011719 438.160156 694.609375 421.570312 755.96875 421.1875 C 817.441406 421.570312 878.039062 438.160156 931.324219 469.160156 C 931.890625 469.488281 932.503906 469.835938 933.101562 470.191406 C 940.867188 474.769531 945.515625 483.199219 945.21875 492.183594 L 945.21875 492.199219 C 943.171875 549.894531 926.652344 606.941406 897.441406 657.175781 C 890.066406 669.855469 881.902344 682.097656 873.183594 693.566406 C 842.683594 733.785156 804.664062 766.367188 760.1875 790.398438 L 756.023438 792.644531 " fill-opacity="1" fill-rule="nonzero"/></g><path fill="#ffffff" d="M 798.628906 745.410156 L 769.382812 745.410156 C 721.335938 745.410156 681.433594 780.394531 673.816406 826.289062 C 704.089844 866.210938 741.875 897.953125 784.003906 920.71875 C 826.136719 897.953125 863.921875 866.210938 894.195312 826.289062 C 886.578125 780.394531 846.671875 745.410156 798.628906 745.410156 Z M 852.734375 667.167969 C 852.734375 705.128906 821.960938 735.898438 784.003906 735.898438 C 746.050781 735.898438 715.28125 705.128906 715.28125 667.167969 C 715.28125 629.210938 746.050781 598.445312 784.003906 598.445312 C 821.960938 598.445312 852.734375 629.210938 852.734375 667.167969 " fill-opacity="1" fill-rule="nonzero"/><g clip-path="url(#2379fd12d7)"><path fill="#ffffff" d="M 783.949219 576.71875 C 725.75 577.085938 668.160156 592.855469 617.511719 622.316406 C 616.921875 622.65625 616.378906 622.964844 615.851562 623.28125 C 613.578125 624.617188 612.226562 627.046875 612.3125 629.625 C 614.253906 684.429688 629.960938 738.644531 657.726562 786.394531 C 664.738281 798.453125 672.496094 810.09375 680.785156 820.988281 C 708.820312 857.960938 743.527344 888.128906 784.003906 910.730469 C 824.480469 888.128906 859.1875 857.960938 887.222656 820.996094 C 895.511719 810.09375 903.273438 798.453125 910.285156 786.394531 C 938.046875 738.648438 953.75 684.4375 955.695312 629.617188 C 955.78125 627.042969 954.429688 624.617188 952.171875 623.289062 C 951.628906 622.964844 951.085938 622.65625 950.546875 622.34375 C 899.855469 592.855469 842.257812 577.085938 783.949219 576.71875 Z M 784.003906 930.667969 L 779.84375 928.417969 C 735.367188 904.386719 697.34375 871.804688 666.835938 831.578125 C 658.125 820.121094 649.964844 807.875 642.589844 795.195312 C 613.378906 744.964844 596.859375 687.917969 594.8125 630.21875 C 594.515625 621.222656 599.164062 612.792969 606.945312 608.207031 C 607.523438 607.859375 608.136719 607.511719 608.75 607.152344 C 661.992188 576.183594 722.589844 559.59375 783.949219 559.210938 C 845.421875 559.59375 906.019531 576.183594 959.304688 607.183594 C 959.871094 607.511719 960.484375 607.859375 961.082031 608.214844 C 968.847656 612.792969 973.496094 621.222656 973.199219 630.203125 L 973.199219 630.21875 C 971.152344 687.917969 954.632812 744.964844 925.421875 795.195312 C 918.046875 807.875 909.882812 820.121094 901.164062 831.585938 C 870.664062 871.804688 832.644531 904.386719 788.167969 928.417969 L 784.003906 930.667969 " fill-opacity="1" fill-rule="nonzero"/></g><path fill="#ffffff" d="M 1206.820312 719.582031 L 1177.578125 719.582031 C 1129.53125 719.582031 1089.625 754.5625 1082.007812 800.457031 C 1112.285156 840.378906 1150.070312 872.125 1192.199219 894.886719 C 1234.328125 872.125 1272.117188 840.378906 1302.386719 800.457031 C 1294.769531 754.5625 1254.867188 719.582031 1206.820312 719.582031 Z M 1260.929688 641.339844 C 1260.929688 679.296875 1230.15625 710.066406 1192.199219 710.066406 C 1154.242188 710.066406 1123.472656 679.296875 1123.472656 641.339844 C 1123.472656 603.382812 1154.242188 572.613281 1192.199219 572.613281 C 1230.15625 572.613281 1260.929688 603.382812 1260.929688 641.339844 " fill-opacity="1" fill-rule="nonzero"/><g clip-path="url(#8c35964124)"><path fill="#ffffff" d="M 1192.144531 550.886719 C 1133.941406 551.253906 1076.351562 567.023438 1025.703125 596.484375 C 1025.113281 596.824219 1024.574219 597.132812 1024.046875 597.449219 C 1021.773438 598.789062 1020.421875 601.214844 1020.507812 603.792969 C 1022.449219 658.597656 1038.152344 712.8125 1065.921875 760.5625 C 1072.933594 772.625 1080.6875 784.261719 1088.976562 795.15625 C 1117.015625 832.128906 1151.71875 862.296875 1192.199219 884.898438 C 1232.675781 862.296875 1267.378906 832.128906 1295.414062 795.164062 C 1303.707031 784.261719 1311.464844 772.625 1318.476562 760.5625 C 1346.242188 712.816406 1361.945312 658.605469 1363.890625 603.785156 C 1363.976562 601.214844 1362.625 598.789062 1360.363281 597.457031 C 1359.824219 597.132812 1359.28125 596.824219 1358.738281 596.515625 C 1308.046875 567.023438 1250.453125 551.253906 1192.144531 550.886719 Z M 1192.199219 904.835938 L 1188.035156 902.589844 C 1143.558594 878.554688 1105.539062 845.976562 1075.03125 805.746094 C 1066.316406 794.289062 1058.15625 782.046875 1050.78125 769.367188 C 1021.574219 719.132812 1005.050781 662.085938 1003.007812 604.386719 C 1002.710938 595.390625 1007.359375 586.960938 1015.136719 582.375 C 1015.714844 582.027344 1016.332031 581.679688 1016.941406 581.324219 C 1070.183594 550.351562 1130.78125 533.761719 1192.144531 533.378906 C 1253.617188 533.761719 1314.210938 550.351562 1367.496094 581.351562 C 1368.066406 581.679688 1368.679688 582.027344 1369.273438 582.382812 C 1377.042969 586.960938 1381.6875 595.390625 1381.390625 604.371094 L 1381.390625 604.386719 C 1379.347656 662.085938 1362.828125 719.132812 1333.613281 769.367188 C 1326.238281 782.046875 1318.078125 794.289062 1309.355469 805.753906 C 1278.859375 845.976562 1240.835938 878.554688 1196.359375 902.589844 L 1192.199219 904.835938 " fill-opacity="1" fill-rule="nonzero"/></g><path fill="#ffffff" d="M 1299.730469 607.390625 L 1270.484375 607.390625 C 1222.4375 607.390625 1182.535156 642.371094 1174.917969 688.265625 C 1205.191406 728.1875 1242.976562 759.933594 1285.105469 782.695312 C 1327.234375 759.933594 1365.023438 728.1875 1395.296875 688.265625 C 1387.679688 642.371094 1347.773438 607.390625 1299.730469 607.390625 Z M 1353.835938 529.148438 C 1353.835938 567.105469 1323.0625 597.878906 1285.105469 597.878906 C 1247.152344 597.878906 1216.382812 567.105469 1216.382812 529.148438 C 1216.382812 491.191406 1247.152344 460.421875 1285.105469 460.421875 C 1323.0625 460.421875 1353.835938 491.191406 1353.835938 529.148438 " fill-opacity="1" fill-rule="nonzero"/><g clip-path="url(#cb77b1f52c)"><path fill="#ffffff" d="M 1285.050781 438.695312 C 1226.851562 439.0625 1169.261719 454.832031 1118.613281 484.292969 C 1118.023438 484.632812 1117.480469 484.941406 1116.953125 485.257812 C 1114.679688 486.597656 1113.328125 489.027344 1113.414062 491.601562 C 1115.355469 546.40625 1131.0625 600.621094 1158.828125 648.371094 C 1165.839844 660.433594 1173.597656 672.070312 1181.886719 682.964844 C 1209.921875 719.941406 1244.628906 750.105469 1285.105469 772.707031 C 1325.582031 750.105469 1360.289062 719.941406 1388.324219 682.972656 C 1396.613281 672.070312 1404.371094 660.433594 1411.386719 648.371094 C 1439.148438 600.625 1454.851562 546.414062 1456.796875 491.59375 C 1456.882812 489.023438 1455.53125 486.597656 1453.273438 485.265625 C 1452.730469 484.941406 1452.1875 484.632812 1451.648438 484.324219 C 1400.953125 454.832031 1343.359375 439.0625 1285.050781 438.695312 Z M 1285.105469 792.644531 L 1280.945312 790.398438 C 1236.46875 766.367188 1198.445312 733.785156 1167.9375 693.558594 C 1159.226562 682.097656 1151.066406 669.855469 1143.691406 657.175781 C 1114.480469 606.941406 1097.960938 549.894531 1095.914062 492.199219 C 1095.617188 483.199219 1100.265625 474.769531 1108.046875 470.183594 C 1108.625 469.835938 1109.238281 469.488281 1109.851562 469.132812 C 1163.09375 438.160156 1223.691406 421.570312 1285.050781 421.1875 C 1346.523438 421.570312 1407.121094 438.160156 1460.40625 469.160156 C 1460.972656 469.488281 1461.585938 469.835938 1462.183594 470.191406 C 1469.949219 474.769531 1474.597656 483.199219 1474.300781 492.183594 L 1474.300781 492.199219 C 1472.253906 549.894531 1455.734375 606.941406 1426.523438 657.175781 C 1419.148438 669.855469 1410.984375 682.097656 1402.265625 693.566406 C 1371.765625 733.785156 1333.746094 766.367188 1289.269531 790.398438 L 1285.105469 792.644531 " fill-opacity="1" fill-rule="nonzero"/></g><path fill="#fd8a20" d="M 1057.28125 932.507812 L 948.25 932.507812 C 769.109375 932.507812 620.328125 1062.9375 591.929688 1234.046875 C 704.808594 1382.898438 845.6875 1501.253906 1002.765625 1586.125 C 1159.839844 1501.253906 1300.726562 1382.898438 1413.59375 1234.046875 C 1385.195312 1062.9375 1236.414062 932.507812 1057.28125 932.507812 Z M 1259.015625 640.792969 C 1259.015625 782.3125 1144.285156 897.042969 1002.765625 897.042969 C 861.25 897.042969 746.53125 782.3125 746.53125 640.792969 C 746.53125 499.269531 861.25 384.558594 1002.765625 384.558594 C 1144.285156 384.558594 1259.015625 499.269531 1259.015625 640.792969 " fill-opacity="1" fill-rule="nonzero"/><g clip-path="url(#ce99ccd9db)"><path fill="#68b417" d="M 1002.558594 303.546875 C 785.5625 304.914062 570.839844 363.714844 382.003906 473.5625 C 379.808594 474.824219 377.789062 475.980469 375.820312 477.152344 C 367.34375 482.140625 362.308594 491.199219 362.625 500.800781 C 369.863281 705.136719 428.421875 907.273438 531.945312 1085.3125 C 558.089844 1130.273438 587.011719 1173.671875 617.910156 1214.289062 C 722.445312 1352.140625 851.84375 1464.621094 1002.765625 1548.886719 C 1153.675781 1464.621094 1283.070312 1352.140625 1387.601562 1214.320312 C 1418.511719 1173.671875 1447.4375 1130.273438 1473.582031 1085.3125 C 1577.101562 907.292969 1635.648438 705.164062 1642.902344 500.773438 C 1643.21875 491.1875 1638.183594 482.140625 1629.753906 477.183594 C 1627.742188 475.980469 1625.710938 474.824219 1623.695312 473.667969 C 1434.695312 363.714844 1219.960938 304.914062 1002.558594 303.546875 Z M 1002.765625 1623.222656 L 987.246094 1614.839844 C 821.417969 1525.238281 679.660156 1403.761719 565.914062 1253.777344 C 533.425781 1211.054688 503.003906 1165.40625 475.507812 1118.128906 C 366.601562 930.835938 305.003906 718.148438 297.378906 503.027344 C 296.273438 469.476562 313.601562 438.054688 342.609375 420.949219 C 344.765625 419.65625 347.054688 418.355469 349.335938 417.027344 C 547.84375 301.550781 773.777344 239.703125 1002.558594 238.273438 C 1231.757812 239.703125 1457.679688 301.550781 1656.351562 417.132812 C 1658.46875 418.355469 1660.753906 419.65625 1662.976562 420.984375 C 1691.933594 438.054688 1709.261719 469.476562 1708.152344 502.96875 L 1708.152344 503.027344 C 1700.53125 718.148438 1638.933594 930.835938 1530.019531 1118.128906 C 1502.519531 1165.40625 1472.089844 1211.054688 1439.578125 1253.804688 C 1325.867188 1403.761719 1184.105469 1525.238281 1018.285156 1614.839844 L 1002.765625 1623.222656 " fill-opacity="1" fill-rule="nonzero"/></g></svg>